<svg width="605" height="605" viewBox="0 0 605 605" fill="none" xmlns="http://www.w3.org/2000/svg">
<path d="M491.394 268.015C491.369 267.996 491.346 267.973 491.327 267.948L453.078 234.861C449.763 231.962 446.965 228.52 444.803 224.684C427.258 193.64 404.678 166.98 377.628 145.442C377.609 145.435 377.593 145.423 377.58 145.408L377.527 145.368C372.206 141.207 366.049 138.245 359.478 136.684C352.906 135.124 346.075 135.001 339.452 136.326C332.829 137.651 326.57 140.391 321.104 144.359C315.638 148.327 311.094 153.429 307.784 159.317C286.376 162.108 265.832 169.527 247.579 181.056C233.853 189.795 229.544 207.454 237.765 221.248C240.397 225.638 244.124 229.269 248.58 231.787C253.037 234.305 258.07 235.624 263.188 235.614C268.176 235.617 273.082 234.344 277.44 231.917C277.722 231.762 278.004 231.614 278.273 231.439C293.539 221.746 311.36 219.884 326.559 225.988C308.523 271.699 269.951 305.915 221.759 318.465C210.494 321.397 200.095 326.986 191.433 334.762C182.771 342.539 176.097 352.277 171.971 363.162C167.846 374.047 166.388 385.762 167.719 397.327C169.051 408.891 173.133 419.968 179.624 429.631C199.826 459.593 211.023 494.714 211.891 530.84C212.07 536.913 214.599 542.678 218.946 546.923C223.292 551.167 229.116 553.559 235.19 553.595H310.157C313.356 553.596 316.521 552.939 319.456 551.664C322.39 550.39 325.031 548.524 327.213 546.185C329.395 543.846 331.073 541.082 332.141 538.066C333.209 535.051 333.645 531.847 333.422 528.656C332.931 521.651 332.36 514.129 331.493 506.56C326.844 457.422 310.551 410.099 283.967 368.512C317.973 349.4 346.736 322.19 367.706 289.298C371.204 304.839 371.419 320.939 368.337 336.568C368.334 336.586 368.334 336.604 368.337 336.622C368.337 336.622 368.337 336.622 368.337 336.662C366.993 343.761 369.164 350.92 374.387 356.829C377.548 360.292 381.387 363.067 385.666 364.982C389.945 366.897 394.572 367.911 399.26 367.961C399.824 367.961 400.389 367.961 400.954 367.914C409.034 367.443 416.61 363.837 422.071 357.863C427.531 351.889 430.444 344.019 430.189 335.93C430.189 335.835 430.189 335.741 430.189 335.647L427.836 295.26L449.441 315.427L449.602 315.568C452.701 318.462 456.348 320.704 460.329 322.162C464.31 323.62 468.543 324.264 472.778 324.055C477.012 323.846 481.162 322.79 484.98 320.947C488.798 319.105 492.208 316.515 495.007 313.331C497.805 310.146 499.936 306.432 501.273 302.409C502.609 298.385 503.124 294.135 502.787 289.909C502.451 285.682 501.269 281.567 499.312 277.806C497.354 274.045 494.662 270.716 491.394 268.015ZM264.997 354.261L264.916 354.301C263.397 355.094 262.061 356.196 260.995 357.537C259.928 358.878 259.155 360.427 258.725 362.086C258.313 363.761 258.255 365.504 258.554 367.204C258.854 368.903 259.505 370.521 260.466 371.954C288.368 412.555 305.44 459.61 310.062 508.657V508.778C310.059 508.818 310.059 508.859 310.062 508.899C310.889 516.065 311.407 523.332 311.904 530.108C311.923 530.353 311.89 530.6 311.809 530.832C311.727 531.065 311.598 531.278 311.43 531.458C311.262 531.638 311.059 531.781 310.833 531.878C310.606 531.976 310.362 532.025 310.116 532.024H235.17C234.702 532.025 234.251 531.843 233.916 531.516C233.58 531.19 233.386 530.744 233.375 530.276C232.417 490.051 219.96 450.941 197.479 417.571C192.915 410.758 190.048 402.952 189.117 394.805C188.187 386.657 189.22 378.406 192.131 370.74C195.041 363.073 199.745 356.215 205.848 350.738C211.95 345.261 219.276 341.324 227.211 339.257C255.703 331.887 281.887 317.48 303.361 297.356C324.835 277.233 340.911 252.039 350.113 224.085C350.113 224.085 350.113 224.085 350.113 224.052C350.498 222.532 351.191 221.108 352.149 219.868C353.107 218.628 354.31 217.598 355.683 216.843C357.056 216.087 358.57 215.622 360.13 215.477C361.69 215.331 363.264 215.508 364.753 215.996C366.242 216.485 367.615 217.274 368.786 218.316C369.957 219.357 370.902 220.628 371.56 222.05C372.219 223.472 372.579 225.014 372.617 226.581C372.654 228.147 372.369 229.705 371.779 231.157C353.703 284.794 315.776 328.528 264.997 354.261ZM480.639 293.916C480.299 295.676 479.498 297.315 478.319 298.666C477.141 300.018 475.625 301.032 473.927 301.608C472.229 302.184 470.408 302.3 468.651 301.944C466.893 301.588 465.261 300.773 463.921 299.583L425.342 263.578C423.562 261.937 421.333 260.865 418.941 260.5C416.548 260.135 414.1 260.492 411.912 261.528C409.724 262.563 407.895 264.228 406.66 266.31C405.425 268.391 404.84 270.795 404.98 273.211L408.671 336.689C408.752 339.171 407.857 341.586 406.178 343.416C404.499 345.245 402.17 346.344 399.69 346.477C397.977 346.499 396.278 346.17 394.698 345.51C393.117 344.849 391.689 343.872 390.501 342.638C389.828 341.845 389.405 341.059 389.486 340.622C394.604 314.695 392.008 287.836 382.017 263.37C385.893 255.106 389.287 246.624 392.181 237.967C394.615 230.693 394.431 222.798 391.66 215.647C388.89 208.495 383.707 202.536 377.009 198.801C370.31 195.066 362.517 193.789 354.976 195.191C347.436 196.593 340.623 200.586 335.714 206.48C314.002 197.284 288.619 199.529 267.081 213.067C265.26 214.12 263.098 214.415 261.062 213.888C259.026 213.361 257.279 212.055 256.197 210.251C253.972 206.52 255.236 201.687 259.074 199.233C275.934 188.556 295.08 182.018 314.95 180.156C315.319 180.122 315.676 180.068 316.032 180.008C318.022 179.65 319.892 178.8 321.469 177.534C323.046 176.268 324.28 174.627 325.06 172.761C326.543 169.117 328.852 165.866 331.804 163.265C334.757 160.664 338.272 158.783 342.074 157.771C345.877 156.758 349.862 156.642 353.717 157.43C357.572 158.219 361.191 159.891 364.291 162.315C389.122 182.112 409.901 206.681 426.034 235.244C429.39 241.196 433.731 246.536 438.874 251.035L477.157 284.155C478.559 285.32 479.623 286.841 480.235 288.558C480.848 290.276 480.987 292.126 480.639 293.916Z" fill="#596B93"/>
<path d="M201.095 269.736C201.097 259.744 198.135 249.976 192.585 241.668C187.035 233.36 179.145 226.884 169.915 223.059C160.684 219.234 150.526 218.233 140.726 220.181C130.927 222.13 121.925 226.941 114.859 234.005C107.793 241.07 102.981 250.072 101.031 259.871C99.0817 269.671 100.082 279.829 103.905 289.06C107.728 298.291 114.203 306.181 122.511 311.732C130.819 317.284 140.586 320.247 150.578 320.247C163.97 320.232 176.81 314.906 186.281 305.437C195.752 295.968 201.079 283.128 201.095 269.736ZM150.578 298.736C144.841 298.736 139.232 297.034 134.462 293.847C129.692 290.659 125.974 286.128 123.779 280.828C121.584 275.527 121.01 269.695 122.129 264.068C123.249 258.441 126.012 253.272 130.07 249.216C134.127 245.16 139.296 242.398 144.923 241.279C150.55 240.161 156.383 240.736 161.683 242.933C166.983 245.129 171.513 248.848 174.699 253.619C177.885 258.39 179.586 263.999 179.584 269.736C179.575 277.425 176.516 284.798 171.078 290.234C165.64 295.671 158.267 298.728 150.578 298.736Z" fill="#596B93"/>
<path d="M296.833 137.133C305.365 137.133 313.705 134.603 320.799 129.864C327.892 125.124 333.421 118.387 336.686 110.504C339.951 102.622 340.805 93.949 339.141 85.5813C337.476 77.2136 333.368 69.5274 327.335 63.4947C321.303 57.462 313.616 53.3536 305.249 51.6892C296.881 50.0247 288.208 50.879 280.326 54.1439C272.443 57.4088 265.706 62.9377 260.967 70.0315C256.227 77.1252 253.697 85.4652 253.697 93.9968C253.711 105.433 258.26 116.397 266.347 124.483C274.433 132.57 285.397 137.119 296.833 137.133ZM296.833 72.3714C301.11 72.3714 305.291 73.6397 308.848 76.016C312.404 78.3922 315.176 81.7696 316.813 85.7211C318.449 89.6727 318.878 94.0208 318.043 98.2157C317.209 102.411 315.149 106.264 312.125 109.288C309.1 112.313 305.247 114.372 301.052 115.207C296.857 116.041 292.509 115.613 288.558 113.976C284.606 112.339 281.229 109.568 278.852 106.011C276.476 102.455 275.208 98.2739 275.208 93.9968C275.21 88.2607 277.488 82.7599 281.543 78.7026C285.598 74.6453 291.097 72.3633 296.833 72.358V72.3714Z" fill="#596B93"/>
</svg>
